<svg data-v-0dd9719b="" version="1.0" xmlns="http://www.w3.org/2000/svg" xmlns:xlink="http://www.w3.org/1999/xlink" width="100%" height="100%" viewBox="0 0 340.000000 250.000000" preserveAspectRatio="xMidYMid meet" color-interpolation-filters="sRGB" style="margin: auto;"> <rect data-v-0dd9719b="" x="0" y="0" width="100%" height="100%" fill="url(#97)" fill-opacity="1" class="background"></rect> <rect data-v-0dd9719b="" x="0" y="0" width="100%" height="100%" fill="url(#watermark)" fill-opacity="1" class="watermarklayer"></rect> <g data-v-0dd9719b="" fill="#fff" class="icon-text-wrapper icon-svg-group iconsvg" transform="translate(70.37999725341797,72.27999877929688)"><g class="iconsvg-imagesvg" transform="translate(65.62000274658203,0)"><g><rect fill="#fff" fill-opacity="0" stroke-width="2" x="0" y="0" width="68" height="68" class="image-rect"></rect> <image filter="url(#colors3579752021)" xlink:href="https://d30y9cdsu7xlg0.cloudfront.net/png/298219-200.png" x="0" y="0" width="68" height="68" filtersec="colorsf7174498531" class="image-svg-svg"></image> <defs><filter id="colors3579752021"><feColorMatrix type="matrix" values="0 0 0 0 0.99609375  0 0 0 0 0.99609375  0 0 0 0 0.99609375  0 0 0 1 0" class="icon-fecolormatrix"></feColorMatrix></filter> <filter id="colorsf7174498531"><feColorMatrix type="matrix" values="0 0 0 0 0.99609375  0 0 0 0 0.99609375  0 0 0 0 0.99609375  0 0 0 1 0" class="icon-fecolormatrix"></feColorMatrix></filter> <filter id="colorsb6783908911"><feColorMatrix type="matrix" values="0 0 0 0 0  0 0 0 0 0  0 0 0 0 0  0 0 0 1 0" class="icon-fecolormatrix"></feColorMatrix></filter></defs></g></g> <g transform="translate(0,69)"><g data-gra="path-name" fill-rule="" class="tp-name iconsvg-namesvg"><g transform="scale(1)"><g><path d="M22.68-11.32C21.76-7.32 19.04-5.4 15.64-5.4 11.4-5.4 8-8.84 8-13.4 8-17.96 11.4-21.36 15.64-21.36 19.08-21.36 21.8-19.48 22.64-15.6L29.12-17.12C27.84-23.48 22.24-27.4 15.64-27.4 7.68-27.4 1.4-21.24 1.4-13.4 1.4-5.52 7.68 0.6 15.64 0.6 22.52 0.6 27.92-3.32 29.16-10.04ZM46.2-20.36C42.92-20.36 40.72-18.64 39.28-16.24L39.28-20.08 32.88-20.08 32.88 0 39.28 0 39.28-6.28C39.28-11.48 41.72-13.8 46.2-13.8L47.36-13.8 47.64-20.2C47.16-20.32 46.76-20.36 46.2-20.36ZM71.36-20.08L64.96-20.08 64.96-18.48C63.4-19.88 61.32-20.68 58.72-20.68 53.4-20.68 48.92-16.36 48.92-10.04 48.92-3.68 53.4 0.6 58.72 0.6 61.32 0.6 63.4-0.2 64.96-1.6L64.96 0 71.36 0ZM60.04-4.84C57.24-4.84 55.2-6.92 55.2-10.04 55.2-13.12 57.24-15.24 60.04-15.24 62.64-15.24 64.96-13.12 64.96-10.04 64.96-6.92 62.64-4.84 60.04-4.84ZM89.4-5.92C88.56-5.44 87.36-5.12 86.48-5.12 84.8-5.12 83.8-5.96 83.8-8.04L83.8-15 89.72-15 89.72-20.08 83.8-20.08 83.8-26 77.4-26 77.4-20.08 73.76-20.08 73.76-15 77.4-15 77.4-7.4C77.4-2.12 80.4 0.6 85.4 0.6 87.68 0.6 89.32-0.04 90.88-0.88ZM112.6-10.04C112.48-16.6 107.92-20.68 102.24-20.68 96.4-20.68 91.6-16.36 91.6-10.04 91.6-3.68 96.4 0.6 102.2 0.6 106.8 0.6 110.44-1.44 112.16-5.68L106.48-6.84C105.4-4.88 103.68-4.52 102.2-4.52 100.04-4.52 98.4-6 97.88-8.4L112.6-8.4ZM102.24-15.48C104.08-15.48 105.68-14.48 106.28-12.32L98-12.32C98.6-14.36 100.44-15.48 102.24-15.48ZM126.44-27.4C120.16-27.4 115.84-24.16 115.84-18.96 115.84-14.08 119.2-12.08 123.04-11.2L128.64-10C130.56-9.6 131.12-8.84 131.12-7.64 131.12-6 129.64-4.88 127.16-4.88 124.48-4.88 122.56-6.08 121.88-8.84L115.08-7.52C115.8-2.28 120.76 0.6 126.8 0.6 132.76 0.6 137.84-2.36 137.84-8.08 137.84-12.32 135.12-14.84 130.48-15.88L124.92-17.12C123.24-17.48 122.76-18.28 122.76-19.36 122.76-20.88 124.16-22.08 126.36-22.08 128.48-22.08 130.56-20.84 131.04-18.32L137.52-19.64C136.52-24.52 132.28-27.4 126.44-27.4ZM154.36-20.68C151.8-20.68 149.72-19.76 148.16-18.16L148.16-28.8 141.76-28.8 141.76 0 148.16 0 148.16-9.32C148.16-13.2 149.8-14.92 152.28-14.92 154.36-14.92 155.76-13.32 155.76-10.96L155.76 0 162.12 0 162.12-12.32C162.12-17.36 159-20.68 154.36-20.68ZM170.04-29.64C167.88-29.64 166.36-27.96 166.36-26 166.36-23.96 167.88-22.44 170.04-22.44 172.2-22.44 173.76-23.96 173.76-26 173.76-27.96 172.2-29.64 170.04-29.64ZM173.24 0L173.24-20.08 166.84-20.08 166.84 0ZM190.84-20.68C188.24-20.68 186.16-19.88 184.6-18.48L184.6-20.08 178.2-20.08 178.2 6.8 184.6 6.8 184.6-1.6C186.16-0.2 188.24 0.6 190.84 0.6 196.16 0.6 200.64-3.68 200.64-10.04 200.64-16.36 196.16-20.68 190.84-20.68ZM189.52-4.84C186.92-4.84 184.6-6.92 184.6-10.04 184.6-13.12 186.92-15.24 189.52-15.24 192.32-15.24 194.36-13.12 194.36-10.04 194.36-6.92 192.32-4.84 189.52-4.84Z" transform="translate(-1.399998664855957, 29.639999389648438)"></path></g> <!----> <!----> <!----> <!----> <!----> <!----> <!----></g></g> <!----></g></g><defs v-gra="od"></defs></svg>
