<svg data-v-0dd9719b="" version="1.0" xmlns="http://www.w3.org/2000/svg" xmlns:xlink="http://www.w3.org/1999/xlink" width="100%" height="100%" viewBox="0 0 340.000000 250.000000" preserveAspectRatio="xMidYMid meet" color-interpolation-filters="sRGB" style="margin: auto;"> <rect data-v-0dd9719b="" x="0" y="0" width="100%" height="100%" fill="#fcfcfc" fill-opacity="1" class="background"></rect> <rect data-v-0dd9719b="" x="0" y="0" width="100%" height="100%" fill="url(#watermark)" fill-opacity="1" class="watermarklayer"></rect> <g data-v-0dd9719b="" fill="#473e79" class="endsvg" transform="translate(101.75,80.7599983215332)"><!----> <!----> <!----> <!----> <!----> <g class="tp-name"><g><rect data-gra="graph-name-bg" stroke-width="2" class="i-icon-bg" x="0" y="0" width="136.5" height="88.4800033569336" fill-opacity="0"></rect> <!----> <!----> </g> <g transform="translate(0,0)"><g data-gra="path-name-bg" mask="url(#6376ad2b-6e49-443d-b434-b0d05cb0c8f7)"><g><rect data-gra="graph-name-bg" stroke-width="2" class="i-icon-bg" x="0" y="0" width="136.5" height="41.7400016784668" fill="#473e79"></rect> <!----> <!----> </g> <g transform="translate(5,5)"><g data-gra="path-name" fill="#473e79"><g transform="scale(1)"><path d="M23.15-9.63L25.78-9.63Q25.25-4.75 22.29-2.16Q19.33 0.42 14.41 0.42L14.41 0.42Q10.97 0.42 8.33-1.29Q5.69-3.01 4.24-6.16Q2.80-9.31 2.78-13.37L2.78-13.37L2.78-17.38Q2.78-21.49 4.22-24.68Q5.67-27.86 8.37-29.59Q11.08-31.32 14.60-31.32L14.60-31.32Q19.56-31.32 22.44-28.63Q25.31-25.95 25.78-21.22L25.78-21.22L23.15-21.22Q22.17-29.09 14.60-29.09L14.60-29.09Q10.40-29.09 7.90-25.95Q5.41-22.81 5.41-17.27L5.41-17.27L5.41-13.49Q5.41-8.15 7.84-4.96Q10.27-1.78 14.41-1.78L14.41-1.78Q18.50-1.78 20.58-3.74Q22.66-5.71 23.15-9.63L23.15-9.63ZM51.13 0L43.67-12.86L34.69-12.86L34.69 0L32.06 0L32.06-30.89L42.10-30.89Q47.04-30.89 49.82-28.50Q52.60-26.10 52.60-21.79L52.60-21.79Q52.60-18.82 50.86-16.55Q49.12-14.28 46.19-13.41L46.19-13.41L53.91-0.28L53.91 0L51.13 0ZM34.69-28.67L34.69-15.09L42.69-15.09Q45.98-15.09 47.97-16.95Q49.97-18.82 49.97-21.79L49.97-21.79Q49.97-25.06 47.89-26.86Q45.81-28.67 42.05-28.67L42.05-28.67L34.69-28.67ZM79.59 0L76.38-8.66L62.36-8.66L59.18 0L56.44 0L68.13-30.89L70.61-30.89L82.30 0L79.59 0ZM69.36-27.71L63.17-10.88L75.56-10.88L69.36-27.71ZM105.07-30.89L105.07-28.67L94.48-28.67L94.48 0L91.87 0L91.87-28.67L81.31-28.67L81.31-30.89L105.07-30.89ZM127.12-17.02L127.12-14.81L112.67-14.81L112.67-2.21L129.28-2.21L129.28 0L110.06 0L110.06-30.89L129.17-30.89L129.17-28.67L112.67-28.67L112.67-17.02L127.12-17.02Z" transform="translate(-2.7795202952029516, 31.317343173431734)"></path></g></g></g></g> <g data-gra="path-name-1-bg" transform="translate(15,46.7400016784668)" mask="url(#e50eab7c-91de-4f85-b3c6-2267c79feeea)"><g><rect data-gra="graph-name-bg" stroke-width="2" class="i-icon-bg" x="0" y="0" width="106.13999938964844" height="41.7400016784668" fill="#473e79"></rect> <!----> <!----> </g> <g transform="translate(5,5)"><g data-gra="path-name-1" fill="#473e79"><g transform="scale(1)"><path d="M18.27-8.21L18.27-8.21Q18.27-9.85 17.11-10.76Q15.96-11.67 13.05-12.65Q10.14-13.62 8.30-14.53L8.30-14.53Q2.29-17.48 2.29-22.64L2.29-22.64Q2.29-25.21 3.79-27.17Q5.28-29.13 8.02-30.22Q10.76-31.32 14.17-31.32L14.17-31.32Q17.50-31.32 20.15-30.13Q22.79-28.94 24.25-26.74Q25.72-24.55 25.72-21.73L25.72-21.73L18.29-21.73Q18.29-23.62 17.13-24.65Q15.98-25.69 14.00-25.69L14.00-25.69Q12.01-25.69 10.85-24.81Q9.70-23.93 9.70-22.58L9.70-22.58Q9.70-21.39 10.97-20.42Q12.24-19.46 15.45-18.43Q18.65-17.40 20.71-16.21L20.71-16.21Q25.72-13.32 25.72-8.25L25.72-8.25Q25.72-4.20 22.66-1.89Q19.61 0.42 14.28 0.42L14.28 0.42Q10.52 0.42 7.48-0.92Q4.43-2.27 2.90-4.61Q1.36-6.96 1.36-10.01L1.36-10.01L8.83-10.01Q8.83-7.53 10.11-6.35Q11.39-5.18 14.28-5.18L14.28-5.18Q16.13-5.18 17.20-5.97Q18.27-6.77 18.27-8.21ZM55.36-30.89L55.36 0L47.95 0L47.95-12.90L36.98-12.90L36.98 0L29.54 0L29.54-30.89L36.98-30.89L36.98-18.63L47.95-18.63L47.95-30.89L55.36-30.89ZM68.00-30.89L68.00 0L60.58 0L60.58-30.89L68.00-30.89ZM85.38-10.48L80.63-10.48L80.63 0L73.18 0L73.18-30.89L85.51-30.89Q89.05-30.89 91.78-29.59Q94.50-28.28 96.00-25.88Q97.50-23.47 97.50-20.41L97.50-20.41Q97.50-15.89 94.26-13.19Q91.02-10.48 85.38-10.48L85.38-10.48ZM80.63-25.14L80.63-16.23L85.51-16.23Q87.67-16.23 88.81-17.31Q89.94-18.40 89.94-20.37L89.94-20.37Q89.94-22.53 88.77-23.83Q87.61-25.12 85.59-25.14L85.59-25.14L80.63-25.14Z" transform="translate(-1.3579335793357934, 31.317343173431734)"></path></g></g></g></g></g></g> <!----></g><mask id="6376ad2b-6e49-443d-b434-b0d05cb0c8f7"><g fill="white"><rect data-gra="graph-name-bg" stroke-width="2" class="i-icon-bg" x="0" y="0" width="136.5" height="41.7400016784668"></rect>   </g> <g transform="translate(5,5)" fill="black"><g data-gra="path-name"><g transform="scale(1)"><path d="M23.15-9.63L25.78-9.63Q25.25-4.75 22.29-2.16Q19.33 0.42 14.41 0.42L14.41 0.42Q10.97 0.42 8.33-1.29Q5.69-3.01 4.24-6.16Q2.80-9.31 2.78-13.37L2.78-13.37L2.78-17.38Q2.78-21.49 4.22-24.68Q5.67-27.86 8.37-29.59Q11.08-31.32 14.60-31.32L14.60-31.32Q19.56-31.32 22.44-28.63Q25.31-25.95 25.78-21.22L25.78-21.22L23.15-21.22Q22.17-29.09 14.60-29.09L14.60-29.09Q10.40-29.09 7.90-25.95Q5.41-22.81 5.41-17.27L5.41-17.27L5.41-13.49Q5.41-8.15 7.84-4.96Q10.27-1.78 14.41-1.78L14.41-1.78Q18.50-1.78 20.58-3.74Q22.66-5.71 23.15-9.63L23.15-9.63ZM51.13 0L43.67-12.86L34.69-12.86L34.69 0L32.06 0L32.06-30.89L42.10-30.89Q47.04-30.89 49.82-28.50Q52.60-26.10 52.60-21.79L52.60-21.79Q52.60-18.82 50.86-16.55Q49.12-14.28 46.19-13.41L46.19-13.41L53.91-0.28L53.91 0L51.13 0ZM34.69-28.67L34.69-15.09L42.69-15.09Q45.98-15.09 47.97-16.95Q49.97-18.82 49.97-21.79L49.97-21.79Q49.97-25.06 47.89-26.86Q45.81-28.67 42.05-28.67L42.05-28.67L34.69-28.67ZM79.59 0L76.38-8.66L62.36-8.66L59.18 0L56.44 0L68.13-30.89L70.61-30.89L82.30 0L79.59 0ZM69.36-27.71L63.17-10.88L75.56-10.88L69.36-27.71ZM105.07-30.89L105.07-28.67L94.48-28.67L94.48 0L91.87 0L91.87-28.67L81.31-28.67L81.31-30.89L105.07-30.89ZM127.12-17.02L127.12-14.81L112.67-14.81L112.67-2.21L129.28-2.21L129.28 0L110.06 0L110.06-30.89L129.17-30.89L129.17-28.67L112.67-28.67L112.67-17.02L127.12-17.02Z" transform="translate(-2.7795202952029516, 31.317343173431734)"></path></g></g></g></mask><mask id="e50eab7c-91de-4f85-b3c6-2267c79feeea"><g fill="white"><rect data-gra="graph-name-bg" stroke-width="2" class="i-icon-bg" x="0" y="0" width="106.13999938964844" height="41.7400016784668"></rect>   </g> <g transform="translate(5,5)" fill="black"><g data-gra="path-name-1"><g transform="scale(1)"><path d="M18.27-8.21L18.27-8.21Q18.27-9.85 17.11-10.76Q15.96-11.67 13.05-12.65Q10.14-13.62 8.30-14.53L8.30-14.53Q2.29-17.48 2.29-22.64L2.29-22.64Q2.29-25.21 3.79-27.17Q5.28-29.13 8.02-30.22Q10.76-31.32 14.17-31.32L14.17-31.32Q17.50-31.32 20.15-30.13Q22.79-28.94 24.25-26.74Q25.72-24.55 25.72-21.73L25.72-21.73L18.29-21.73Q18.29-23.62 17.13-24.65Q15.98-25.69 14.00-25.69L14.00-25.69Q12.01-25.69 10.85-24.81Q9.70-23.93 9.70-22.58L9.70-22.58Q9.70-21.39 10.97-20.42Q12.24-19.46 15.45-18.43Q18.65-17.40 20.71-16.21L20.71-16.21Q25.72-13.32 25.72-8.25L25.72-8.25Q25.72-4.20 22.66-1.89Q19.61 0.42 14.28 0.42L14.28 0.42Q10.52 0.42 7.48-0.92Q4.43-2.27 2.90-4.61Q1.36-6.96 1.36-10.01L1.36-10.01L8.83-10.01Q8.83-7.53 10.11-6.35Q11.39-5.18 14.28-5.18L14.28-5.18Q16.13-5.18 17.20-5.97Q18.27-6.77 18.27-8.21ZM55.36-30.89L55.36 0L47.95 0L47.95-12.90L36.98-12.90L36.98 0L29.54 0L29.54-30.89L36.98-30.89L36.98-18.63L47.95-18.63L47.95-30.89L55.36-30.89ZM68.00-30.89L68.00 0L60.58 0L60.58-30.89L68.00-30.89ZM85.38-10.48L80.63-10.48L80.63 0L73.18 0L73.18-30.89L85.51-30.89Q89.05-30.89 91.78-29.59Q94.50-28.28 96.00-25.88Q97.50-23.47 97.50-20.41L97.50-20.41Q97.50-15.89 94.26-13.19Q91.02-10.48 85.38-10.48L85.38-10.48ZM80.63-25.14L80.63-16.23L85.51-16.23Q87.67-16.23 88.81-17.31Q89.94-18.40 89.94-20.37L89.94-20.37Q89.94-22.53 88.77-23.83Q87.61-25.12 85.59-25.14L85.59-25.14L80.63-25.14Z" transform="translate(-1.3579335793357934, 31.317343173431734)"></path></g></g></g></mask><defs v-gra="od"></defs></svg>
