<svg data-v-0dd9719b="" version="1.0" xmlns="http://www.w3.org/2000/svg" xmlns:xlink="http://www.w3.org/1999/xlink" width="100%" height="100%" viewBox="0 0 340.000000 250.000000" preserveAspectRatio="xMidYMid meet" color-interpolation-filters="sRGB" style="margin: auto;"> <rect data-v-0dd9719b="" x="0" y="0" width="100%" height="100%" fill="#fff" fill-opacity="1" class="background"></rect> <rect data-v-0dd9719b="" x="0" y="0" width="100%" height="100%" fill="url(#watermark)" fill-opacity="1" class="watermarklayer"></rect> <g data-v-0dd9719b="" fill="#333" class="icon-text-wrapper icon-svg-group iconsvg" transform="translate(47.36000061035156,95.02308082580566)"><g class="iconsvg-imagesvg" transform="translate(0,0)"><g><rect fill="#333" fill-opacity="0" stroke-width="2" x="0" y="0" width="60" height="59.9538355466291" class="image-rect"></rect> <svg x="0" y="0" width="60" height="59.9538355466291" filtersec="colorsb807213293" class="image-svg-svg primary" style="overflow: visible;"><svg xmlns="http://www.w3.org/2000/svg" viewBox="0.0008743107318878174 0.0011028051376342773 152.69773864746094 152.5809783935547"><path d="M.07 50c0-10.14-.19-20.29.06-30.42C.43 7.48 7.62.31 19.91.18c20.65-.2 41.3-.3 62 .07C97.05.52 108.14 21.18 100.05 34c-1.1 1.73-4.66 2.58-7.12 2.68-8.62.34-17.27-.05-25.89.25-17.16.59-29.45 12.87-30 29.93-.26 8.29-.43 16.62 0 24.89.38 7.38-2.72 10.1-9.81 9.32-2.74-.3-5.55 0-8.32-.12C7.78 100.39.75 93.41.09 82.31v-1.84Q.06 65.26.07 50z" fill="#fc6295"></path><path d="M152.61 102.61c0 10.14.17 20.28 0 30.41-.24 12-7 19.17-18.76 19.32-21 .26-41.91.38-62.85 0-15.39-.29-26.27-20.27-18.4-33.54 1.06-1.78 4.58-2.84 7-2.94 8.61-.36 17.26 0 25.87-.23 17.79-.55 29.8-12.65 30.3-30.46.24-8.6.16-17.21.06-25.81-.06-5.34 2.1-8.05 7.71-7.73 4 .22 8-.24 12 .25 10.31 1.25 16.7 8.09 17 18.48.31 10.75.07 21.51.07 32.26z" fill="#32cb93"></path><path d="M51.68 81.63c0-3.38-.13-6.76 0-10.14.52-11.7 7.34-19.07 18.9-19.75 7.68-.46 15.4 0 23.1-.16 5.77-.15 7.54 2.81 7.44 8-.14 7.37.25 14.76-.13 22.11-.62 12.06-8.05 19-20.25 19.27-6.47.15-13-.37-19.41.15-8 .65-10.51-2.93-9.77-10.27a91.22 91.22 0 0 0 .05-9.21z" fill="#fbc44f"></path><path d="M128.49 36.81c-12.66.06-12.7 0-12.72-12.73 0-14.84 6.74-23.64 18.31-23.8A18.08 18.08 0 0 1 152.55 18c.25 11.9-8.46 18.73-24.06 18.81zM32.18 107.94c12.66-.06 12.7 0 12.72 12.73 0 14.84-6.75 23.64-18.31 23.8a18.08 18.08 0 0 1-18.47-17.68c-.26-11.94 8.46-18.79 24.06-18.85z" fill="#43c0f6"></path></svg></svg> <!----></g></g> <g transform="translate(67,10.281919479370117)"><g data-gra="path-name" fill-rule="" class="tp-name iconsvg-namesvg"><g transform="scale(1)"><g><path d="M23.98-7.66L27.64-4.05Q25.49-1.89 22.65-0.67 19.8 0.56 16.53 0.56L16.53 0.56Q13.3 0.56 10.44-0.67 7.58-1.89 5.45-4.03 3.31-6.16 2.09-9.02 0.86-11.88 0.86-15.11L0.86-15.11Q0.86-18.34 2.09-21.2 3.31-24.07 5.45-26.2 7.58-28.33 10.44-29.56 13.3-30.78 16.53-30.78L16.53-30.78Q19.8-30.78 22.65-29.56 25.49-28.33 27.64-26.18L27.64-26.18 23.98-22.52Q22.47-24.02 20.58-24.82 18.68-25.62 16.53-25.62L16.53-25.62Q14.42-25.62 12.53-24.82 10.63-24.02 9.13-22.52L9.13-22.52Q7.62-21.01 6.82-19.12 6.03-17.22 6.03-15.11L6.03-15.11Q6.03-13 6.82-11.09 7.62-9.17 9.13-7.66L9.13-7.66Q10.63-6.16 12.53-5.38 14.42-4.61 16.53-4.61L16.53-4.61Q18.68-4.61 20.58-5.38 22.47-6.16 23.98-7.66L23.98-7.66ZM34.74-19.89L34.74-19.89Q35.95-20.88 37.48-21.53 39.01-22.17 40.94-22.17L40.94-22.17 40.94-17.01Q38.36-17.01 36.55-15.2L36.55-15.2Q34.74-13.3 34.74-10.81L34.74-10.81 34.74 0 29.58 0 29.58-10.81 29.58-21.57 34.74-21.57 34.74-19.89ZM58.9-21.57L64.06-21.57 64.06 0 58.9 0 58.9-10.76Q58.9-13.35 57.09-15.15L57.09-15.15Q55.28-16.96 52.7-16.96L52.7-16.96Q51.45-16.96 50.31-16.49 49.17-16.02 48.3-15.15L48.3-15.15Q46.5-13.35 46.5-10.76L46.5-10.76Q46.5-8.22 48.3-6.41L48.3-6.41Q49.17-5.51 50.31-5.06 51.45-4.61 52.7-4.61L52.7-4.61Q53.99-4.61 55.02-5.04L55.02-5.04 56.87-0.43Q54.89 0.56 52.27 0.56L52.27 0.56Q49.9 0.56 47.9-0.32 45.89-1.21 44.43-2.76 42.97-4.31 42.15-6.37 41.33-8.44 41.33-10.76L41.33-10.76Q41.33-13.13 42.15-15.2 42.97-17.26 44.43-18.81 45.89-20.36 47.9-21.25 49.9-22.13 52.27-22.13L52.27-22.13Q54.37-22.13 56.01-21.48 57.65-20.84 58.9-19.85L58.9-19.85 58.9-21.57ZM77.15-5.17L78.44 0 73.7 0Q72.24 0 70.95-0.56 69.66-1.12 68.71-2.09 67.76-3.06 67.2-4.35 66.64-5.64 66.64-7.1L66.64-7.1 66.64-25.87 71.81-27.17 71.81-18.94 74.82-18.94 76.12-13.78 71.81-13.78 71.81-7.1Q71.81-6.29 72.37-5.73 72.93-5.17 73.7-5.17L73.7-5.17 77.15-5.17ZM100.44-8.18L95.02-8.18 83.74-8.18Q84.17-7.19 84.98-6.41L84.98-6.41Q85.89-5.51 87.01-5.06 88.13-4.61 89.38-4.61L89.38-4.61Q91.14-4.61 92.52-5.42L92.52-5.42 97.9-3.27Q96.35-1.46 94.15-0.45 91.96 0.56 89.38 0.56L89.38 0.56Q87.01 0.56 84.94-0.32 82.87-1.21 81.33-2.76 79.78-4.31 78.89-6.37 78.01-8.44 78.01-10.76L78.01-10.76Q78.01-13.13 78.89-15.2 79.78-17.26 81.33-18.81 82.87-20.36 84.94-21.25 87.01-22.13 89.38-22.13L89.38-22.13Q91.74-22.13 93.81-21.25 95.88-20.36 97.43-18.81 98.98-17.26 99.86-15.2 100.74-13.13 100.74-10.76L100.74-10.76Q100.74-9.39 100.44-8.18L100.44-8.18ZM89.38-16.96L89.38-16.96Q86.88-16.96 84.98-15.15L84.98-15.15Q84.17-14.34 83.74-13.35L83.74-13.35 95.02-13.35Q94.59-14.34 93.77-15.15L93.77-15.15Q91.96-16.96 89.38-16.96ZM122.65-8.61L122.65-8.61Q122.65-6.5 121.97-4.8 121.28-3.1 120.01-1.92 118.74-0.73 116.93-0.09 115.12 0.56 112.88 0.56L112.88 0.56Q109.31 0.56 106.51-0.58 103.71-1.72 101.9-3.19L101.9-3.19 105.48-6.76Q106.9-5.47 108.66-4.78L108.66-4.78Q109.74-4.35 110.69-4.22 111.63-4.09 112.24-4.09L112.24-4.09Q113.36-4.09 114.28-4.37 115.21-4.65 115.9-5.12L115.9-5.12Q117.36-6.2 117.36-7.96L117.36-7.96Q117.36-9.04 116.58-9.9L116.58-9.9Q115.98-10.59 115.03-11.02L115.03-11.02Q114.26-11.45 113.4-11.71 112.54-11.97 111.85-12.18L111.85-12.18Q111.63-12.27 111.46-12.29 111.29-12.31 111.16-12.4L111.16-12.4Q111.07-12.4 110.9-12.49L110.9-12.49Q110-12.74 108.3-13.39 106.6-14.03 104.92-15.15L104.92-15.15Q101-17.78 101-21.61L101-21.61Q101-24.15 101.88-25.9 102.76-27.64 104.19-28.74 105.61-29.83 107.35-30.31 109.09-30.78 110.77-30.78L110.77-30.78Q113.87-30.78 115.98-30.05 118.09-29.32 119.34-28.59L119.34-28.59Q119.99-28.2 120.44-27.83 120.89-27.47 121.23-27.17L121.23-27.17 117.57-23.46Q116.41-24.63 115.21-25.23L115.21-25.23Q113.4-26.09 111.42-26.09L111.42-26.09Q110.56-26.09 109.7-25.87 108.84-25.66 108.19-25.31L108.19-25.31Q106.3-24.15 106.3-22.26L106.3-22.26Q106.3-21.1 107.07-20.28L107.07-20.28Q107.63-19.63 108.62-19.12L108.62-19.12Q109.44-18.68 110.34-18.43 111.25-18.17 112.02-17.95L112.02-17.95 112.54-17.82Q112.75-17.74 113.36-17.57 113.96-17.39 114.78-17.05 115.59-16.7 116.56-16.23 117.53-15.76 118.48-15.11L118.48-15.11Q122.65-12.36 122.65-8.61ZM136.3-22.13L136.3-22.13Q138.41-22.13 140.13-21.33 141.86-20.54 143.08-19.14 144.31-17.74 144.98-15.89 145.64-14.03 145.64-11.93L145.64-11.93 145.64 0 140.48 0 140.48-11.93Q140.48-12.96 140.09-13.86 139.7-14.77 138.97-15.5L138.97-15.5Q137.51-16.96 135.44-16.96L135.44-16.96Q133.33-16.96 131.87-15.5L131.87-15.5Q130.4-14.03 130.4-11.93L130.4-11.93 130.4 0 125.24 0 125.24-30.14 130.4-30.14 130.4-19.8Q131.57-20.84 133.03-21.48 134.49-22.13 136.3-22.13ZM153.39 0L148.23 0 148.23-21.53 153.39-21.53 153.39 0ZM148.23-24.97L148.23-30.14 153.39-30.14 153.39-24.97 148.23-24.97ZM168.2-22.13L168.2-22.13Q170.57-22.13 172.57-21.25 174.58-20.36 176.04-18.81 177.5-17.26 178.32-15.2 179.14-13.13 179.14-10.76L179.14-10.76Q179.14-8.44 178.32-6.37 177.5-4.31 176.04-2.76 174.58-1.21 172.57-0.32 170.57 0.56 168.2 0.56L168.2 0.56Q165.58 0.56 163.6-0.43L163.6-0.43 165.45-5.04Q166.48-4.61 167.77-4.61L167.77-4.61Q169.02-4.61 170.14-5.06 171.26-5.51 172.16-6.41L172.16-6.41Q173.97-8.22 173.97-10.76L173.97-10.76Q173.97-13.35 172.16-15.15L172.16-15.15Q170.27-16.96 167.77-16.96L167.77-16.96Q165.19-16.96 163.38-15.15L163.38-15.15Q161.57-13.35 161.57-10.76L161.57-10.76 161.57-1.72 161.57 8.61 156.41 8.61 156.41-21.57 161.57-21.57 161.57-19.85Q162.82-20.84 164.46-21.48 166.09-22.13 168.2-22.13Z" transform="translate(-0.8600000143051147, 30.780000686645508)"></path></g> <!----> <!----> <!----> <!----> <!----> <!----> <!----></g></g> <!----></g></g><defs v-gra="od"></defs></svg>